# xmcd
#
# Track frame offsets:
#	466
#	7501
#	17601
#	37736
#	53946
#	67224
#	76673
#	86017
#	98651
#	111256
#	132225
#	144852
#	146829
#	191679
#	202914
#	231845
#	259769
#
# Disc length: 3780 seconds
#
# Revision: 0
# Processed by: cddbd v1.5.2PL0 Copyright (c) Steve Scherf et al.
# Submitted via: audiograbber 1.83.01
#
DISCID=dc0ebe11
DTITLE=Various Artist - Metal Xmas Invasion 2002
DYEAR=2002
DGENRE=
TTITLE0=Coan Teen - Ihr Kinderlein Kommet
TTITLE1=Coan Teen - Oh Du Fröhliche
TTITLE2=Awen - Little Drummer Boy
TTITLE3=Awen - Oh Du Fröhliche
TTITLE4=DE/Test - Stille Nacht, Heilige Nacht
TTITLE5=DE/Test - Kling Glöckchen
TTITLE6=Borderlands - Macht Hoch Die Tür
TTITLE7=Carpathian Dream - Es Ist Ein Ros' Entsprungen
TTITLE8=Carpathian Dream - Feliz Navidad
TTITLE9=Operation Counterstrike - Jingle Bells
TTITLE10=Operation Counterstrike - Oh Tannenbaum
TTITLE11=Santaclaws - Am Weihnachtsbaum
TTITLE12=Santaclaws - Kommet Ihr Hirten
TTITLE13=Dill - Rudolph The Red-Nosed Reindeer
TTITLE14=Dill - Süßer Die Glocken Nie Klingen
TTITLE15=Fürst Black - Die Weihnachtsgeschichte
TTITLE16=Bonus: - Daten-CD
EXTD=
EXTT0=
EXTT1=
EXTT2=
EXTT3=
EXTT4=
EXTT5=
EXTT6=
EXTT7=
EXTT8=
EXTT9=
EXTT10=
EXTT11=
EXTT12=
EXTT13=
EXTT14=
EXTT15=
EXTT16=
PLAYORDER=
